<mxfile host="Electron" modified="2024-02-15T21:01:36.137Z" agent="Mozilla/5.0 (Macintosh; Intel Mac OS X 10_15_7) AppleWebKit/537.36 (KHTML, like Gecko) draw.io/23.0.2 Chrome/120.0.6099.109 Electron/28.1.0 Safari/537.36" etag="ydp8o066BgDlt09vOO8y" version="23.0.2" type="device">
  <diagram name="Page-1" id="OY2iPuIFfPLl3rpVCC-p">
    <mxGraphModel dx="1093" dy="798" grid="1" gridSize="10" guides="1" tooltips="1" connect="1" arrows="1" fold="1" page="1" pageScale="1" pageWidth="800" pageHeight="800" background="none" math="0" shadow="0">
      <root>
        <mxCell id="0" />
        <mxCell id="1" parent="0" />
        <mxCell id="rQv3BPeQmRKRY3msomSt-50" style="edgeStyle=orthogonalEdgeStyle;shape=connector;curved=0;rounded=1;orthogonalLoop=1;jettySize=auto;html=1;entryX=0;entryY=0.5;entryDx=0;entryDy=0;labelBackgroundColor=default;strokeColor=default;align=center;verticalAlign=middle;fontFamily=Helvetica;fontSize=11;fontColor=default;endArrow=block;endFill=1;" parent="1" source="rQv3BPeQmRKRY3msomSt-1" target="rQv3BPeQmRKRY3msomSt-4" edge="1">
          <mxGeometry relative="1" as="geometry">
            <mxPoint x="250" y="110" as="sourcePoint" />
            <Array as="points">
              <mxPoint x="300" y="120" />
              <mxPoint x="300" y="80" />
            </Array>
          </mxGeometry>
        </mxCell>
        <mxCell id="rQv3BPeQmRKRY3msomSt-1" value="User&lt;br&gt;" style="shape=umlActor;verticalLabelPosition=bottom;verticalAlign=top;html=1;outlineConnect=0;fillColor=#000000;" parent="1" vertex="1">
          <mxGeometry x="160" y="40" width="80" height="160" as="geometry" />
        </mxCell>
        <mxCell id="rQv3BPeQmRKRY3msomSt-52" style="edgeStyle=orthogonalEdgeStyle;shape=connector;curved=0;rounded=1;orthogonalLoop=1;jettySize=auto;html=1;entryX=0.5;entryY=0;entryDx=0;entryDy=0;labelBackgroundColor=default;strokeColor=default;align=center;verticalAlign=middle;fontFamily=Helvetica;fontSize=11;fontColor=default;endArrow=block;endFill=1;" parent="1" source="rQv3BPeQmRKRY3msomSt-4" target="rQv3BPeQmRKRY3msomSt-5" edge="1">
          <mxGeometry relative="1" as="geometry" />
        </mxCell>
        <mxCell id="rQv3BPeQmRKRY3msomSt-4" value="AppService" style="rounded=1;whiteSpace=wrap;html=1;" parent="1" vertex="1">
          <mxGeometry x="340" y="40" width="120" height="80" as="geometry" />
        </mxCell>
        <mxCell id="rQv3BPeQmRKRY3msomSt-45" style="edgeStyle=orthogonalEdgeStyle;shape=connector;curved=0;rounded=1;orthogonalLoop=1;jettySize=auto;html=1;entryX=0.5;entryY=0;entryDx=0;entryDy=0;labelBackgroundColor=default;strokeColor=default;align=center;verticalAlign=middle;fontFamily=Helvetica;fontSize=11;fontColor=default;endArrow=block;endFill=1;" parent="1" source="rQv3BPeQmRKRY3msomSt-5" target="rQv3BPeQmRKRY3msomSt-6" edge="1">
          <mxGeometry relative="1" as="geometry" />
        </mxCell>
        <mxCell id="rQv3BPeQmRKRY3msomSt-5" value="WebApplication" style="ellipse;whiteSpace=wrap;html=1;" parent="1" vertex="1">
          <mxGeometry x="340" y="160" width="120" height="80" as="geometry" />
        </mxCell>
        <mxCell id="rQv3BPeQmRKRY3msomSt-12" style="edgeStyle=orthogonalEdgeStyle;rounded=1;orthogonalLoop=1;jettySize=auto;html=1;exitX=0;exitY=0.5;exitDx=0;exitDy=0;entryX=0.5;entryY=0;entryDx=0;entryDy=0;endArrow=block;endFill=1;curved=0;" parent="1" source="rQv3BPeQmRKRY3msomSt-6" target="rQv3BPeQmRKRY3msomSt-8" edge="1">
          <mxGeometry relative="1" as="geometry" />
        </mxCell>
        <mxCell id="rQv3BPeQmRKRY3msomSt-33" style="edgeStyle=orthogonalEdgeStyle;rounded=0;orthogonalLoop=1;jettySize=auto;html=1;entryX=0.5;entryY=0;entryDx=0;entryDy=0;endArrow=block;endFill=1;" parent="1" source="rQv3BPeQmRKRY3msomSt-6" target="rQv3BPeQmRKRY3msomSt-20" edge="1">
          <mxGeometry relative="1" as="geometry" />
        </mxCell>
        <mxCell id="rQv3BPeQmRKRY3msomSt-66" style="edgeStyle=orthogonalEdgeStyle;shape=connector;curved=0;rounded=1;orthogonalLoop=1;jettySize=auto;html=1;exitX=0;exitY=0.25;exitDx=0;exitDy=0;entryX=1;entryY=0.5;entryDx=0;entryDy=0;labelBackgroundColor=default;strokeColor=#35596E;align=center;verticalAlign=middle;fontFamily=Helvetica;fontSize=11;fontColor=default;endArrow=none;endFill=0;dashed=1;" parent="1" source="rQv3BPeQmRKRY3msomSt-6" target="rQv3BPeQmRKRY3msomSt-64" edge="1">
          <mxGeometry relative="1" as="geometry" />
        </mxCell>
        <mxCell id="rQv3BPeQmRKRY3msomSt-6" value="API Gateway" style="rounded=0;whiteSpace=wrap;html=1;" parent="1" vertex="1">
          <mxGeometry x="320" y="280" width="160" height="80" as="geometry" />
        </mxCell>
        <mxCell id="rQv3BPeQmRKRY3msomSt-13" style="edgeStyle=orthogonalEdgeStyle;rounded=1;orthogonalLoop=1;jettySize=auto;html=1;exitX=0.5;exitY=0;exitDx=0;exitDy=0;entryX=0.5;entryY=0;entryDx=0;entryDy=0;endArrow=block;endFill=1;curved=0;" parent="1" target="rQv3BPeQmRKRY3msomSt-7" edge="1">
          <mxGeometry relative="1" as="geometry">
            <mxPoint x="320" y="320" as="sourcePoint" />
          </mxGeometry>
        </mxCell>
        <mxCell id="rQv3BPeQmRKRY3msomSt-7" value="AuthService" style="rounded=1;whiteSpace=wrap;html=1;" parent="1" vertex="1">
          <mxGeometry x="20" y="400" width="120" height="80" as="geometry" />
        </mxCell>
        <mxCell id="rQv3BPeQmRKRY3msomSt-29" value="" style="edgeStyle=orthogonalEdgeStyle;rounded=0;orthogonalLoop=1;jettySize=auto;html=1;endArrow=none;endFill=0;" parent="1" source="rQv3BPeQmRKRY3msomSt-8" target="rQv3BPeQmRKRY3msomSt-17" edge="1">
          <mxGeometry relative="1" as="geometry" />
        </mxCell>
        <mxCell id="rQv3BPeQmRKRY3msomSt-37" style="edgeStyle=orthogonalEdgeStyle;shape=connector;curved=0;rounded=1;orthogonalLoop=1;jettySize=auto;html=1;entryX=0;entryY=0.25;entryDx=0;entryDy=0;labelBackgroundColor=default;align=center;verticalAlign=middle;fontFamily=Helvetica;fontSize=11;fontColor=default;endArrow=block;endFill=1;strokeColor=#CC0000;exitX=1;exitY=0.75;exitDx=0;exitDy=0;" parent="1" source="rQv3BPeQmRKRY3msomSt-8" target="rQv3BPeQmRKRY3msomSt-9" edge="1">
          <mxGeometry relative="1" as="geometry">
            <Array as="points">
              <mxPoint x="480" y="460" />
              <mxPoint x="480" y="520" />
            </Array>
          </mxGeometry>
        </mxCell>
        <mxCell id="h1KjMi-bS9tO_MLpqdWS-1" style="edgeStyle=orthogonalEdgeStyle;rounded=1;orthogonalLoop=1;jettySize=auto;html=1;exitX=0.25;exitY=0;exitDx=0;exitDy=0;entryX=0.75;entryY=0;entryDx=0;entryDy=0;endArrow=block;endFill=1;curved=0;strokeColor=#CC0000;" edge="1" parent="1" source="rQv3BPeQmRKRY3msomSt-8" target="rQv3BPeQmRKRY3msomSt-7">
          <mxGeometry relative="1" as="geometry">
            <Array as="points">
              <mxPoint x="210" y="380" />
              <mxPoint x="110" y="380" />
            </Array>
          </mxGeometry>
        </mxCell>
        <mxCell id="rQv3BPeQmRKRY3msomSt-8" value="CookbookService" style="rounded=1;whiteSpace=wrap;html=1;" parent="1" vertex="1">
          <mxGeometry x="180" y="400" width="120" height="80" as="geometry" />
        </mxCell>
        <mxCell id="rQv3BPeQmRKRY3msomSt-14" style="edgeStyle=orthogonalEdgeStyle;rounded=1;orthogonalLoop=1;jettySize=auto;html=1;exitX=1;exitY=0.5;exitDx=0;exitDy=0;entryX=0.5;entryY=0;entryDx=0;entryDy=0;endArrow=block;endFill=1;curved=0;" parent="1" source="rQv3BPeQmRKRY3msomSt-6" target="rQv3BPeQmRKRY3msomSt-9" edge="1">
          <mxGeometry relative="1" as="geometry" />
        </mxCell>
        <mxCell id="rQv3BPeQmRKRY3msomSt-30" value="" style="edgeStyle=orthogonalEdgeStyle;rounded=0;orthogonalLoop=1;jettySize=auto;html=1;endArrow=none;endFill=0;" parent="1" source="rQv3BPeQmRKRY3msomSt-9" target="rQv3BPeQmRKRY3msomSt-18" edge="1">
          <mxGeometry relative="1" as="geometry" />
        </mxCell>
        <mxCell id="rQv3BPeQmRKRY3msomSt-9" value="RecipeService" style="rounded=1;whiteSpace=wrap;html=1;" parent="1" vertex="1">
          <mxGeometry x="500" y="500" width="120" height="80" as="geometry" />
        </mxCell>
        <mxCell id="rQv3BPeQmRKRY3msomSt-31" value="" style="edgeStyle=orthogonalEdgeStyle;rounded=0;orthogonalLoop=1;jettySize=auto;html=1;endArrow=none;endFill=0;" parent="1" source="rQv3BPeQmRKRY3msomSt-10" target="rQv3BPeQmRKRY3msomSt-19" edge="1">
          <mxGeometry relative="1" as="geometry" />
        </mxCell>
        <mxCell id="rQv3BPeQmRKRY3msomSt-10" value="UserService" style="rounded=1;whiteSpace=wrap;html=1;" parent="1" vertex="1">
          <mxGeometry x="660" y="400" width="120" height="80" as="geometry" />
        </mxCell>
        <mxCell id="rQv3BPeQmRKRY3msomSt-16" value="" style="shape=cylinder3;whiteSpace=wrap;html=1;boundedLbl=1;backgroundOutline=1;size=15;" parent="1" vertex="1">
          <mxGeometry x="20" y="500" width="120" height="80" as="geometry" />
        </mxCell>
        <mxCell id="rQv3BPeQmRKRY3msomSt-17" value="" style="shape=cylinder3;whiteSpace=wrap;html=1;boundedLbl=1;backgroundOutline=1;size=15;" parent="1" vertex="1">
          <mxGeometry x="180" y="500" width="120" height="80" as="geometry" />
        </mxCell>
        <mxCell id="rQv3BPeQmRKRY3msomSt-18" value="" style="shape=cylinder3;whiteSpace=wrap;html=1;boundedLbl=1;backgroundOutline=1;size=15;" parent="1" vertex="1">
          <mxGeometry x="500" y="600" width="120" height="80" as="geometry" />
        </mxCell>
        <mxCell id="rQv3BPeQmRKRY3msomSt-19" value="" style="shape=cylinder3;whiteSpace=wrap;html=1;boundedLbl=1;backgroundOutline=1;size=15;" parent="1" vertex="1">
          <mxGeometry x="660" y="500" width="120" height="80" as="geometry" />
        </mxCell>
        <mxCell id="h1KjMi-bS9tO_MLpqdWS-2" style="edgeStyle=orthogonalEdgeStyle;rounded=1;orthogonalLoop=1;jettySize=auto;html=1;exitX=0.25;exitY=0;exitDx=0;exitDy=0;entryX=1;entryY=0.5;entryDx=0;entryDy=0;strokeColor=#CC0000;curved=0;endArrow=block;endFill=1;" edge="1" parent="1" source="rQv3BPeQmRKRY3msomSt-20" target="rQv3BPeQmRKRY3msomSt-8">
          <mxGeometry relative="1" as="geometry" />
        </mxCell>
        <mxCell id="rQv3BPeQmRKRY3msomSt-20" value="FeedService" style="rounded=1;whiteSpace=wrap;html=1;" parent="1" vertex="1">
          <mxGeometry x="340" y="500" width="120" height="80" as="geometry" />
        </mxCell>
        <mxCell id="rQv3BPeQmRKRY3msomSt-23" value="" style="shape=cylinder3;whiteSpace=wrap;html=1;boundedLbl=1;backgroundOutline=1;size=15;" parent="1" vertex="1">
          <mxGeometry x="340" y="600" width="120" height="80" as="geometry" />
        </mxCell>
        <mxCell id="rQv3BPeQmRKRY3msomSt-25" style="edgeStyle=orthogonalEdgeStyle;rounded=0;orthogonalLoop=1;jettySize=auto;html=1;exitX=0.5;exitY=1;exitDx=0;exitDy=0;entryX=0.5;entryY=0;entryDx=0;entryDy=0;entryPerimeter=0;endArrow=none;endFill=0;curved=1;" parent="1" source="rQv3BPeQmRKRY3msomSt-7" target="rQv3BPeQmRKRY3msomSt-16" edge="1">
          <mxGeometry relative="1" as="geometry" />
        </mxCell>
        <mxCell id="rQv3BPeQmRKRY3msomSt-39" style="edgeStyle=orthogonalEdgeStyle;shape=connector;curved=0;rounded=1;orthogonalLoop=1;jettySize=auto;html=1;entryX=0.5;entryY=0;entryDx=0;entryDy=0;entryPerimeter=0;labelBackgroundColor=default;strokeColor=default;align=center;verticalAlign=middle;fontFamily=Helvetica;fontSize=11;fontColor=default;endArrow=none;endFill=0;" parent="1" source="rQv3BPeQmRKRY3msomSt-20" target="rQv3BPeQmRKRY3msomSt-23" edge="1">
          <mxGeometry relative="1" as="geometry" />
        </mxCell>
        <mxCell id="rQv3BPeQmRKRY3msomSt-58" style="edgeStyle=orthogonalEdgeStyle;shape=connector;curved=0;rounded=1;orthogonalLoop=1;jettySize=auto;html=1;entryX=0.75;entryY=1;entryDx=0;entryDy=0;labelBackgroundColor=default;strokeColor=#35596E;align=center;verticalAlign=middle;fontFamily=Helvetica;fontSize=11;fontColor=default;endArrow=none;endFill=0;dashed=1;exitX=0.5;exitY=0;exitDx=0;exitDy=0;" parent="1" source="rQv3BPeQmRKRY3msomSt-40" target="rQv3BPeQmRKRY3msomSt-7" edge="1">
          <mxGeometry relative="1" as="geometry" />
        </mxCell>
        <mxCell id="rQv3BPeQmRKRY3msomSt-40" value="Responsible for authentication and authorization" style="rounded=1;whiteSpace=wrap;html=1;fontFamily=Helvetica;fontSize=11;fontColor=#FFFFFF;fillColor=#35596E;strokeColor=none;perimeterSpacing=0;glass=0;shadow=0;" parent="1" vertex="1">
          <mxGeometry x="20" y="600" width="120" height="60" as="geometry" />
        </mxCell>
        <mxCell id="rQv3BPeQmRKRY3msomSt-41" value="Responsible for storing collections of recipes" style="rounded=1;whiteSpace=wrap;html=1;fontFamily=Helvetica;fontSize=11;fontColor=#FFFFFF;fillColor=#35596E;strokeColor=none;perimeterSpacing=0;glass=0;shadow=0;" parent="1" vertex="1">
          <mxGeometry x="180" y="600" width="120" height="60" as="geometry" />
        </mxCell>
        <mxCell id="rQv3BPeQmRKRY3msomSt-42" value="Responsible for serving recipes to users" style="rounded=1;whiteSpace=wrap;html=1;fontFamily=Helvetica;fontSize=11;fontColor=#FFFFFF;fillColor=#35596E;strokeColor=none;perimeterSpacing=0;glass=0;shadow=0;" parent="1" vertex="1">
          <mxGeometry x="340" y="700" width="120" height="60" as="geometry" />
        </mxCell>
        <mxCell id="rQv3BPeQmRKRY3msomSt-43" value="Responsible for creating, storing, and serving recipes" style="rounded=1;whiteSpace=wrap;html=1;fontFamily=Helvetica;fontSize=11;fontColor=#FFFFFF;fillColor=#35596E;strokeColor=none;perimeterSpacing=0;glass=0;shadow=0;" parent="1" vertex="1">
          <mxGeometry x="500" y="700" width="120" height="60" as="geometry" />
        </mxCell>
        <mxCell id="rQv3BPeQmRKRY3msomSt-44" value="Responsible for storing all user information" style="rounded=1;whiteSpace=wrap;html=1;fontFamily=Helvetica;fontSize=11;fontColor=#FFFFFF;fillColor=#35596E;strokeColor=none;perimeterSpacing=0;glass=0;shadow=0;" parent="1" vertex="1">
          <mxGeometry x="660" y="600" width="120" height="60" as="geometry" />
        </mxCell>
        <mxCell id="rQv3BPeQmRKRY3msomSt-51" style="edgeStyle=orthogonalEdgeStyle;shape=connector;curved=0;rounded=1;orthogonalLoop=1;jettySize=auto;html=1;entryX=0;entryY=0.5;entryDx=0;entryDy=0;labelBackgroundColor=default;strokeColor=default;align=center;verticalAlign=middle;fontFamily=Helvetica;fontSize=11;fontColor=default;endArrow=block;endFill=1;startArrow=block;startFill=1;" parent="1" source="rQv3BPeQmRKRY3msomSt-1" target="rQv3BPeQmRKRY3msomSt-5" edge="1">
          <mxGeometry relative="1" as="geometry">
            <mxPoint x="250" y="140" as="sourcePoint" />
            <mxPoint x="350" y="90" as="targetPoint" />
            <Array as="points">
              <mxPoint x="300" y="140" />
              <mxPoint x="300" y="200" />
            </Array>
          </mxGeometry>
        </mxCell>
        <mxCell id="rQv3BPeQmRKRY3msomSt-55" style="edgeStyle=orthogonalEdgeStyle;shape=connector;curved=0;rounded=1;orthogonalLoop=1;jettySize=auto;html=1;exitX=0;exitY=0.5;exitDx=0;exitDy=0;entryX=1;entryY=1;entryDx=0;entryDy=0;labelBackgroundColor=default;strokeColor=#35596E;align=center;verticalAlign=middle;fontFamily=Helvetica;fontSize=11;fontColor=default;endArrow=none;endFill=0;dashed=1;" parent="1" source="rQv3BPeQmRKRY3msomSt-53" target="rQv3BPeQmRKRY3msomSt-5" edge="1">
          <mxGeometry relative="1" as="geometry" />
        </mxCell>
        <mxCell id="rQv3BPeQmRKRY3msomSt-53" value="A GUI responsible for user experience and communicating with the API Gateway" style="rounded=1;whiteSpace=wrap;html=1;fontFamily=Helvetica;fontSize=11;fontColor=#FFFFFF;fillColor=#35596E;strokeColor=none;perimeterSpacing=0;glass=0;shadow=0;" parent="1" vertex="1">
          <mxGeometry x="520" y="160" width="120" height="80" as="geometry" />
        </mxCell>
        <mxCell id="rQv3BPeQmRKRY3msomSt-56" value="" style="edgeStyle=orthogonalEdgeStyle;shape=connector;curved=0;rounded=1;orthogonalLoop=1;jettySize=auto;html=1;labelBackgroundColor=default;strokeColor=#35596E;align=center;verticalAlign=middle;fontFamily=Helvetica;fontSize=11;fontColor=default;endArrow=none;endFill=0;dashed=1;exitX=0;exitY=0.5;exitDx=0;exitDy=0;entryX=1;entryY=0.75;entryDx=0;entryDy=0;" parent="1" source="rQv3BPeQmRKRY3msomSt-54" target="rQv3BPeQmRKRY3msomSt-4" edge="1">
          <mxGeometry relative="1" as="geometry" />
        </mxCell>
        <mxCell id="rQv3BPeQmRKRY3msomSt-54" value="Responsible only for serving the web app" style="rounded=1;whiteSpace=wrap;html=1;fontFamily=Helvetica;fontSize=11;fontColor=#FFFFFF;fillColor=#35596E;strokeColor=none;perimeterSpacing=0;glass=0;shadow=0;" parent="1" vertex="1">
          <mxGeometry x="520" y="40" width="120" height="80" as="geometry" />
        </mxCell>
        <mxCell id="rQv3BPeQmRKRY3msomSt-59" style="edgeStyle=orthogonalEdgeStyle;shape=connector;curved=0;rounded=1;orthogonalLoop=1;jettySize=auto;html=1;entryX=0.75;entryY=1;entryDx=0;entryDy=0;labelBackgroundColor=default;strokeColor=#35596E;align=center;verticalAlign=middle;fontFamily=Helvetica;fontSize=11;fontColor=default;endArrow=none;endFill=0;dashed=1;exitX=0.5;exitY=0;exitDx=0;exitDy=0;" parent="1" source="rQv3BPeQmRKRY3msomSt-41" edge="1">
          <mxGeometry relative="1" as="geometry">
            <mxPoint x="244.74" y="599.48" as="sourcePoint" />
            <mxPoint x="274.74" y="479.48" as="targetPoint" />
          </mxGeometry>
        </mxCell>
        <mxCell id="rQv3BPeQmRKRY3msomSt-61" style="edgeStyle=orthogonalEdgeStyle;shape=connector;curved=0;rounded=1;orthogonalLoop=1;jettySize=auto;html=1;entryX=0.25;entryY=1;entryDx=0;entryDy=0;labelBackgroundColor=default;strokeColor=#35596E;align=center;verticalAlign=middle;fontFamily=Helvetica;fontSize=11;fontColor=default;endArrow=none;endFill=0;dashed=1;exitX=0.5;exitY=0;exitDx=0;exitDy=0;" parent="1" source="rQv3BPeQmRKRY3msomSt-43" target="rQv3BPeQmRKRY3msomSt-9" edge="1">
          <mxGeometry relative="1" as="geometry">
            <mxPoint x="250" y="710" as="sourcePoint" />
            <mxPoint x="284.74" y="589.48" as="targetPoint" />
          </mxGeometry>
        </mxCell>
        <mxCell id="rQv3BPeQmRKRY3msomSt-62" style="edgeStyle=orthogonalEdgeStyle;shape=connector;curved=0;rounded=1;orthogonalLoop=1;jettySize=auto;html=1;entryX=0.25;entryY=1;entryDx=0;entryDy=0;labelBackgroundColor=default;strokeColor=#35596E;align=center;verticalAlign=middle;fontFamily=Helvetica;fontSize=11;fontColor=default;endArrow=none;endFill=0;dashed=1;exitX=0.5;exitY=0;exitDx=0;exitDy=0;" parent="1" source="rQv3BPeQmRKRY3msomSt-44" target="rQv3BPeQmRKRY3msomSt-10" edge="1">
          <mxGeometry relative="1" as="geometry">
            <mxPoint x="570" y="610" as="sourcePoint" />
            <mxPoint x="600" y="490" as="targetPoint" />
          </mxGeometry>
        </mxCell>
        <mxCell id="rQv3BPeQmRKRY3msomSt-63" style="edgeStyle=orthogonalEdgeStyle;shape=connector;curved=0;rounded=1;orthogonalLoop=1;jettySize=auto;html=1;entryX=0.75;entryY=1;entryDx=0;entryDy=0;labelBackgroundColor=default;strokeColor=#35596E;align=center;verticalAlign=middle;fontFamily=Helvetica;fontSize=11;fontColor=default;endArrow=none;endFill=0;dashed=1;exitX=0.5;exitY=0;exitDx=0;exitDy=0;" parent="1" source="rQv3BPeQmRKRY3msomSt-42" target="rQv3BPeQmRKRY3msomSt-20" edge="1">
          <mxGeometry relative="1" as="geometry">
            <mxPoint x="570" y="610" as="sourcePoint" />
            <mxPoint x="600" y="490" as="targetPoint" />
          </mxGeometry>
        </mxCell>
        <mxCell id="rQv3BPeQmRKRY3msomSt-64" value="Responsible for calling other API endpoints and for handling immediate authentication" style="rounded=1;whiteSpace=wrap;html=1;fontFamily=Helvetica;fontSize=11;fontColor=#FFFFFF;fillColor=#35596E;strokeColor=none;perimeterSpacing=0;glass=0;shadow=0;" parent="1" vertex="1">
          <mxGeometry x="90" y="240" width="190" height="60" as="geometry" />
        </mxCell>
        <mxCell id="d6smEhdsvIiPWi7TKo3d-1" style="edgeStyle=orthogonalEdgeStyle;rounded=1;orthogonalLoop=1;jettySize=auto;html=1;exitX=1;exitY=0.5;exitDx=0;exitDy=0;entryX=0.5;entryY=0;entryDx=0;entryDy=0;endArrow=block;endFill=1;curved=0;" parent="1" source="rQv3BPeQmRKRY3msomSt-6" target="rQv3BPeQmRKRY3msomSt-10" edge="1">
          <mxGeometry relative="1" as="geometry">
            <mxPoint x="490" y="330" as="sourcePoint" />
            <mxPoint x="570" y="410" as="targetPoint" />
          </mxGeometry>
        </mxCell>
        <mxCell id="h1KjMi-bS9tO_MLpqdWS-3" style="edgeStyle=orthogonalEdgeStyle;rounded=1;orthogonalLoop=1;jettySize=auto;html=1;exitX=1;exitY=0.5;exitDx=0;exitDy=0;entryX=0;entryY=0.5;entryDx=0;entryDy=0;strokeColor=#CC0000;curved=0;endArrow=block;endFill=1;" edge="1" parent="1" source="rQv3BPeQmRKRY3msomSt-20" target="rQv3BPeQmRKRY3msomSt-9">
          <mxGeometry relative="1" as="geometry">
            <mxPoint x="380" y="510" as="sourcePoint" />
            <mxPoint x="310" y="450" as="targetPoint" />
          </mxGeometry>
        </mxCell>
        <mxCell id="h1KjMi-bS9tO_MLpqdWS-6" style="edgeStyle=orthogonalEdgeStyle;shape=connector;curved=0;rounded=1;orthogonalLoop=1;jettySize=auto;html=1;entryX=0.75;entryY=0;entryDx=0;entryDy=0;labelBackgroundColor=default;align=center;verticalAlign=middle;fontFamily=Helvetica;fontSize=11;fontColor=default;endArrow=block;endFill=1;strokeColor=#CC0000;exitX=0.25;exitY=0;exitDx=0;exitDy=0;" edge="1" parent="1" source="rQv3BPeQmRKRY3msomSt-9" target="rQv3BPeQmRKRY3msomSt-7">
          <mxGeometry relative="1" as="geometry">
            <mxPoint x="310" y="430" as="sourcePoint" />
            <mxPoint x="510" y="430" as="targetPoint" />
          </mxGeometry>
        </mxCell>
        <mxCell id="h1KjMi-bS9tO_MLpqdWS-7" style="edgeStyle=orthogonalEdgeStyle;shape=connector;curved=0;rounded=1;orthogonalLoop=1;jettySize=auto;html=1;entryX=0;entryY=0.5;entryDx=0;entryDy=0;labelBackgroundColor=default;align=center;verticalAlign=middle;fontFamily=Helvetica;fontSize=11;fontColor=default;endArrow=block;endFill=1;strokeColor=#CC0000;exitX=0.75;exitY=0;exitDx=0;exitDy=0;startArrow=block;startFill=1;" edge="1" parent="1" source="rQv3BPeQmRKRY3msomSt-9" target="rQv3BPeQmRKRY3msomSt-10">
          <mxGeometry relative="1" as="geometry">
            <mxPoint x="540" y="410" as="sourcePoint" />
            <mxPoint x="120" y="410" as="targetPoint" />
          </mxGeometry>
        </mxCell>
        <mxCell id="h1KjMi-bS9tO_MLpqdWS-8" style="edgeStyle=orthogonalEdgeStyle;shape=connector;curved=0;rounded=1;orthogonalLoop=1;jettySize=auto;html=1;entryX=0.75;entryY=0;entryDx=0;entryDy=0;labelBackgroundColor=default;align=center;verticalAlign=middle;fontFamily=Helvetica;fontSize=11;fontColor=default;endArrow=block;endFill=1;strokeColor=#CC0000;exitX=0.25;exitY=0;exitDx=0;exitDy=0;" edge="1" parent="1" source="rQv3BPeQmRKRY3msomSt-10" target="rQv3BPeQmRKRY3msomSt-7">
          <mxGeometry relative="1" as="geometry">
            <mxPoint x="540" y="410" as="sourcePoint" />
            <mxPoint x="120" y="410" as="targetPoint" />
          </mxGeometry>
        </mxCell>
        <mxCell id="h1KjMi-bS9tO_MLpqdWS-9" style="edgeStyle=orthogonalEdgeStyle;shape=connector;curved=0;rounded=1;orthogonalLoop=1;jettySize=auto;html=1;entryX=1;entryY=0.25;entryDx=0;entryDy=0;labelBackgroundColor=default;align=center;verticalAlign=middle;fontFamily=Helvetica;fontSize=11;fontColor=default;endArrow=block;endFill=1;strokeColor=#CC0000;exitX=0;exitY=0.25;exitDx=0;exitDy=0;" edge="1" parent="1" source="rQv3BPeQmRKRY3msomSt-10" target="rQv3BPeQmRKRY3msomSt-8">
          <mxGeometry relative="1" as="geometry">
            <mxPoint x="700" y="410" as="sourcePoint" />
            <mxPoint x="120" y="410" as="targetPoint" />
          </mxGeometry>
        </mxCell>
      </root>
    </mxGraphModel>
  </diagram>
</mxfile>
